<?xml version="1.0" encoding="UTF-8"?>
<svg xmlns="http://www.w3.org/2000/svg" xmlns:xlink="http://www.w3.org/1999/xlink" viewBox="0 0 571.11 431.42">
  <defs>
    <style>
      .cls-1 {
        clip-path: url(#clippath-2);
      }

      .cls-2 {
        fill: #010101;
      }

      .cls-2, .cls-3, .cls-4, .cls-5, .cls-6, .cls-7, .cls-8, .cls-9, .cls-10, .cls-11, .cls-12, .cls-13 {
        stroke-width: 0px;
      }

      .cls-3, .cls-10, .cls-13 {
        fill-rule: evenodd;
      }

      .cls-3, .cls-12 {
        fill: #272c2d;
      }

      .cls-4 {
        fill: #3b4245;
      }

      .cls-5 {
        fill: #282929;
      }

      .cls-14 {
        stroke: #282929;
        stroke-width: 4px;
      }

      .cls-14, .cls-6, .cls-15, .cls-16, .cls-17, .cls-18 {
        fill: none;
      }

      .cls-14, .cls-15, .cls-16, .cls-18 {
        stroke-linecap: round;
      }

      .cls-15, .cls-16, .cls-17, .cls-18 {
        stroke: #e3d5cc;
        stroke-miterlimit: 10;
      }

      .cls-15, .cls-17 {
        stroke-width: 1.5px;
      }

      .cls-19 {
        clip-path: url(#clippath-1);
      }

      .cls-7, .cls-10 {
        fill: #121515;
      }

      .cls-8 {
        fill: #fff;
      }

      .cls-9 {
        fill: #e3d5cc;
      }

      .cls-16 {
        stroke-width: .75px;
      }

      .cls-20 {
        clip-path: url(#clippath);
      }

      .cls-21 {
        clip-path: url(#clippath-3);
      }

      .cls-11 {
        fill: #afc5b7;
      }

      .cls-22 {
        mask: url(#mask-1);
      }

      .cls-23 {
        mask: url(#mask);
      }

      .cls-18 {
        stroke-width: 2px;
      }

      .cls-13 {
        fill: #647074;
        isolation: isolate;
        opacity: .4;
      }
    </style>
    <clipPath id="clippath">
      <rect class="cls-6" x="192.95" y="22.52" width="183.94" height="380.3"/>
    </clipPath>
    <mask id="mask" x="0" y="34.04" width="571.11" height="356.81" maskUnits="userSpaceOnUse">
      <g id="mask0_52_359" data-name="mask0 52 359">
        <path class="cls-8" d="m201.81,48.22c0-7.83,6.35-14.18,14.18-14.18h136.52c7.83,0,14.18,6.35,14.18,14.18v328.44c0,7.83-6.35,14.18-14.18,14.18h-136.52c-7.83,0-14.18-6.35-14.18-14.18V48.22Z"/>
      </g>
    </mask>
    <clipPath id="clippath-1">
      <rect class="cls-6" x="185.2" y="34.04" width="200.7" height="356.81" rx="9.29" ry="9.29"/>
    </clipPath>
    <clipPath id="clippath-2">
      <rect class="cls-6" x="209.14" y="85.33" width="11.34" height="11.34"/>
    </clipPath>
    <mask id="mask-1" x="227.02" y="43.8" width="18.21" height="6.32" maskUnits="userSpaceOnUse">
      <g id="path-22-outside-1_8_707" data-name="path-22-outside-1 8 707">
        <rect class="cls-8" x="227.02" y="43.8" width="18.21" height="6.32"/>
        <path class="cls-2" d="m227.84,44.22h1.05v5.34h-.53v-4.82h-.84l.32-.52Zm2.98,2.67c0-.7.08-1.25.23-1.63.15-.38.37-.68.64-.87.28-.2.58-.3.93-.3s.66.1.94.3c.28.2.5.5.66.9.16.4.25.94.25,1.61s-.08,1.2-.24,1.6c-.16.4-.38.7-.66.9-.28.2-.6.3-.94.3s-.65-.1-.92-.29c-.27-.2-.49-.49-.64-.87-.15-.39-.23-.93-.23-1.63Zm.5.01c0,.6.05,1.06.16,1.37.11.31.27.54.48.7.21.16.43.24.67.24s.46-.08.66-.23c.21-.16.36-.39.47-.7.13-.38.2-.84.2-1.37s-.06-.98-.18-1.32c-.12-.34-.28-.59-.49-.75-.21-.16-.43-.24-.66-.24s-.46.08-.67.24c-.21.16-.37.39-.48.7-.11.31-.16.76-.16,1.37Zm4.51-1.39c.12,0,.23.04.32.13.09.09.13.19.13.32s-.04.23-.13.32c-.09.09-.19.13-.32.13s-.23-.04-.32-.13c-.09-.09-.13-.19-.13-.32s.04-.23.13-.32c.09-.09.19-.13.32-.13Zm0,3.25c.12,0,.23.04.32.13s.13.19.13.32-.04.23-.13.32c-.09.09-.19.13-.32.13s-.23-.04-.32-.13c-.09-.09-.13-.2-.13-.32s.04-.23.13-.32c.09-.09.19-.13.32-.13Zm4.1-4.67h.11v3.72h.65v.51h-.65v1.24h-.53v-1.24h-2.55l2.98-4.23Zm-.42,3.72v-2.22l-1.57,2.22h1.57Zm1.92-3.59h3.39l-2.86,5.47-.44-.23,2.47-4.74h-2.56v-.5Z"/>
      </g>
    </mask>
    <clipPath id="clippath-3">
      <rect class="cls-6" x="351.13" y="43.49" width="7.43" height="7.43"/>
    </clipPath>
  </defs>
  <g id="Calque_2" data-name="Calque 2">
    <path class="cls-9" d="m124.8,6.61c-5.25,4.35-9.97,9.26-14.16,14.64-5.29,6.79-10.18,13.65-14.05,21.36s-7.06,15.51-9.46,23.63-3.79,16.85-4.78,25.46c-.84,7.31-.82,14.6.11,21.9,1.14,8.94,2.69,17.62,5.68,26.14,5.3,15.12,12.74,29.15,23.36,41.21,4.81,5.46,10.9,9.77,16.72,14.05s11.48,7.86,17.54,11.27c13.55,7.61,28.07,13.67,42.77,18.65,26.77,9.08,54.72,14.11,82.55,18.68,14.02,2.3,28.02,4.56,41.86,7.82,13.47,3.18,26.77,7.12,39.72,12.01,3.18,1.2,6.33,2.46,9.47,3.78l-5.37-2.27c18.8,7.94,36.64,18.04,52.8,30.52l-4.55-3.52c11.25,8.74,22.19,18.51,30.99,29.77l-3.52-4.55c5.28,6.85,9.45,14.37,12.83,22.31l-2.27-5.37c2.26,5.38,4.15,10.78,4.99,16.57l-.8-5.98c.61,4.57.63,9.16.04,13.73l.8-5.98c-.66,4.67-1.93,9.18-3.74,13.52l2.27-5.37c-2.17,5.06-5.01,9.75-8.36,14.11l3.52-4.55c-2.69,3.44-5.67,6.54-9.13,9.21l4.55-3.52c-4.03,3.04-8.45,5.41-13.09,7.39l5.37-2.27c-5.96,2.5-12.15,4.37-18.33,6.25-5.51,1.68-10.51,5.32-13.45,10.34s-4.02,11.93-2.27,17.34,5.14,10.7,10.34,13.45,11.48,4.05,17.34,2.27c16.6-5.05,33.2-10.83,45.81-23.31,3.99-3.95,7.43-8.58,10.6-13.2,2.09-3.05,3.93-6.27,5.44-9.64,2.23-4.96,4.4-10,5.64-15.31,1.18-5.05,1.89-10.31,2.09-15.49s-.57-10.83-1.44-16.14c-.56-3.44-1.48-6.82-2.69-10.09-2.97-8.01-6.38-16.03-10.72-23.41-7.6-12.92-18.04-24.06-29.15-34.02-12.08-10.83-25.27-20.62-39.23-28.89-13.87-8.21-28.62-14.88-43.66-20.64-13.61-5.21-27.61-9.35-41.8-12.66s-29.12-5.65-43.77-8.07c-29.35-4.86-58.85-10.36-86.83-20.73-3.32-1.23-6.62-2.54-9.89-3.91l5.37,2.27c-14.54-6.16-28.41-13.85-40.95-23.47l4.55,3.52c-4.44-3.44-8.37-7.07-11.84-11.51l3.52,4.55c-5.1-6.62-9.17-13.98-12.44-21.66l2.27,5.37c-3.57-8.5-6.1-17.4-7.34-26.54l.8,5.98c-1.03-8.02-.91-16.01.15-24.02l-.8,5.98c1.36-9.94,3.98-19.66,7.84-28.93l-2.27,5.37c3.5-8.28,7.95-16.11,13.42-23.25l-3.52,4.55c4.23-5.47,9.01-10.47,14.34-14.88,4.19-3.47,6.59-10.68,6.59-15.91,0-5.52-2.45-12.11-6.59-15.91S146.71-.25,140.71.02l-5.98.8c-3.81,1.07-7.12,3-9.93,5.79h0Z"/>
    <circle class="cls-5" cx="174.9" cy="354" r="64.43"/>
    <path class="cls-5" d="m447.47,9.01l-96.93,25.97c-18.87,5.06-25.19,28.64-11.38,42.46l70.96,70.96c13.81,13.81,37.4,7.49,42.46-11.38l25.97-96.93c5.06-18.87-12.21-36.14-31.08-31.08Z"/>
  </g>
  <g id="Calque_1" data-name="Calque 1">
    <g class="cls-20">
      <g>
        <path class="cls-4" d="m192.95,46.01c0-12.97,10.52-23.49,23.49-23.49h135.63c12.97,0,23.49,10.52,23.49,23.49v333.31c0,12.97-10.52,23.49-23.49,23.49h-135.63c-12.97,0-23.49-10.52-23.49-23.49V46.01Z"/>
        <path class="cls-7" d="m195.61,46.01c0-11.51,9.33-20.83,20.83-20.83h135.63c11.51,0,20.83,9.33,20.83,20.83v333.31c0,11.51-9.33,20.83-20.83,20.83h-135.63c-11.51,0-20.83-9.33-20.83-20.83V46.01Z"/>
        <path class="cls-12" d="m265.06,27.39c-.81,0-.88-1.11-1.55-1.3-.08-.02-.11-.12-.05-.17.17-.13.44-.3.72-.3h40.16c.28,0,.55.17.72.3.06.05.03.15-.05.17-.68.19-.75,1.3-1.55,1.3h-38.39Z"/>
        <path class="cls-7" d="m375.56,170.12h.44c.49,0,.89.66.89,1.47v49.37c0,.81-.4,1.47-.89,1.47h-.44v-52.3Z"/>
        <path class="cls-11" d="m375.56,117.37h.44c.49,0,.89.66.89,1.47v23.22c0,.81-.4,1.47-.89,1.47h-.44v-26.15Z"/>
        <g class="cls-23">
          <g>
            <g class="cls-19">
              <image width="2700" height="1630" transform="translate(0 34.04) scale(.22)" xlink:href="wallpaper.jpeg"/>
              <g>
                <rect class="cls-6" x="185.2" y="34.04" width="200.7" height="356.81"/>
                <path class="cls-14" d="m251.73,384.25h68.2"/>
                <path class="cls-5" d="m209.58,76.61h.69l1.36,4.81,1.91-4.81h.14l1.89,4.81,1.38-4.81h.68l-1.91,6.67h-.13l-1.98-5.05-2.02,5.05h-.13l-1.88-6.67Zm12.91,5.04l.54.28c-.18.34-.38.62-.61.83-.23.21-.49.37-.78.49-.29.11-.61.16-.98.16-.8,0-1.43-.26-1.89-.79-.45-.53-.68-1.13-.68-1.79,0-.63.19-1.18.58-1.67.49-.62,1.14-.93,1.96-.93s1.51.32,2.01.96c.36.45.54,1.01.54,1.69h-4.44c.01.57.2,1.05.55,1.42.35.37.79.55,1.31.55.25,0,.49-.04.73-.13.24-.09.44-.2.61-.35.17-.15.35-.38.54-.7Zm0-1.33c-.08-.34-.21-.61-.37-.81-.16-.2-.37-.37-.64-.49-.27-.12-.55-.19-.84-.19-.48,0-.9.16-1.25.47-.25.23-.45.57-.58,1.02h3.67Zm6.81-3.87v6.84h-.63v-.85c-.27.32-.57.57-.9.73-.33.16-.69.25-1.08.25-.7,0-1.3-.25-1.79-.76-.49-.51-.74-1.13-.74-1.85s.25-1.32.75-1.82c.5-.51,1.1-.76,1.8-.76.41,0,.77.09,1.1.26.33.17.62.43.87.78v-2.81h.63Zm-2.54,2.39c-.35,0-.68.09-.98.26-.3.17-.54.42-.72.73-.18.31-.26.65-.26,1s.09.68.27,1c.18.32.42.57.72.74.3.18.63.26.97.26s.68-.09.99-.26c.31-.18.55-.41.72-.71.17-.3.25-.64.25-1.01,0-.57-.19-1.05-.57-1.43-.38-.38-.84-.58-1.39-.58Zm4.61,3.23l.61.29-.92,1.71-.45-.19.76-1.81Zm7.35-5.45l3.11,6.67h-.72l-1.05-2.2h-2.88l-1.04,2.2h-.74l3.15-6.67h.16Zm-.08,1.42l-1.15,2.42h2.28l-1.13-2.42Zm4.05.32h.64v2.3c0,.56.03.95.09,1.16.09.3.26.54.52.72.26.18.56.26.92.26s.65-.08.9-.25c.25-.17.42-.4.51-.68.06-.19.1-.59.1-1.21v-2.3h.65v2.42c0,.68-.08,1.19-.24,1.54-.16.34-.4.62-.72.81-.32.19-.72.29-1.2.29s-.88-.1-1.21-.29c-.32-.2-.56-.47-.72-.82-.16-.35-.24-.88-.24-1.58v-2.38Zm9.99,0h.64v3.93c0,.69-.06,1.2-.18,1.52-.17.45-.46.8-.87,1.05-.41.24-.91.37-1.48.37-.42,0-.8-.06-1.14-.18-.34-.12-.61-.28-.82-.48-.21-.2-.41-.49-.59-.88h.69c.19.33.43.57.73.73.3.16.66.24,1.1.24s.8-.08,1.09-.24c.3-.16.51-.36.64-.61.13-.25.19-.64.19-1.18v-.25c-.24.3-.53.54-.88.7-.34.16-.71.24-1.1.24-.45,0-.88-.11-1.28-.34-.4-.23-.71-.53-.93-.91-.22-.38-.33-.8-.33-1.26s.11-.88.34-1.27c.23-.4.54-.71.94-.94.4-.23.83-.34,1.27-.34.37,0,.71.08,1.03.23.32.15.63.4.93.75v-.86Zm-1.87.49c-.36,0-.69.09-1,.26-.31.17-.55.41-.73.72-.18.31-.26.64-.26.99,0,.54.18.99.54,1.34.36.35.83.53,1.41.53s1.05-.18,1.41-.53c.36-.35.54-.81.54-1.38,0-.37-.08-.7-.25-.99-.16-.29-.39-.52-.69-.69-.3-.17-.62-.25-.97-.25Zm6.82-.13h-.64c.02-.66.24-1.2.66-1.62.42-.42.95-.64,1.57-.64s1.11.2,1.49.59c.38.4.57.86.57,1.4,0,.38-.09.73-.27,1.07-.18.33-.53.78-1.06,1.34l-1.66,1.79h3.08v.64h-4.53l2.55-2.75c.52-.55.85-.96,1.01-1.23.16-.27.24-.55.24-.85,0-.38-.14-.7-.42-.97-.28-.27-.62-.41-1.03-.41-.43,0-.78.14-1.07.43-.28.28-.44.68-.48,1.2Zm5.8-2.09h1.31v6.67h-.66v-6.02h-1.05l.4-.65Z"/>
                <path class="cls-5" d="m223.95,93.38l.57-.34c.4.74.86,1.1,1.38,1.1.22,0,.43-.05.63-.15.2-.11.35-.25.45-.42.1-.18.15-.36.15-.56,0-.22-.08-.44-.23-.66-.21-.3-.59-.65-1.14-1.07-.56-.42-.9-.72-1.04-.91-.24-.31-.35-.65-.35-1.02,0-.29.07-.55.21-.79.14-.24.33-.43.59-.56.25-.14.53-.21.83-.21.31,0,.61.08.88.24.28.15.57.44.87.86l-.54.41c-.25-.33-.47-.55-.64-.66-.18-.11-.37-.16-.58-.16-.27,0-.49.08-.66.24-.17.16-.25.36-.25.6,0,.15.03.29.09.42.06.14.17.28.33.44.09.08.38.31.86.67.58.43.97.81,1.19,1.14.21.33.32.67.32,1,0,.48-.18.9-.55,1.26-.37.36-.81.54-1.34.54-.41,0-.77-.11-1.1-.32-.33-.22-.63-.58-.91-1.09Zm5.13-3.69h.64v2.3c0,.56.03.95.09,1.16.09.3.26.54.52.72.26.18.56.26.92.26s.65-.08.9-.25c.25-.17.42-.4.51-.68.06-.19.1-.59.1-1.21v-2.3h.65v2.42c0,.68-.08,1.19-.24,1.54-.16.34-.4.62-.72.81-.32.19-.72.29-1.2.29s-.88-.1-1.21-.29c-.32-.2-.56-.47-.72-.82-.16-.35-.24-.88-.24-1.58v-2.38Zm5.73,0h.64v.88c.25-.34.54-.59.84-.76.31-.17.64-.25,1.01-.25s.7.09.98.28c.29.19.5.44.64.76.14.32.2.81.2,1.48v2.54h-.63v-2.35c0-.57-.02-.95-.07-1.14-.08-.33-.22-.57-.43-.73-.21-.17-.48-.25-.82-.25-.38,0-.73.13-1.03.38-.3.25-.5.57-.6.94-.06.25-.09.69-.09,1.34v1.81h-.64v-4.94Zm5.67,0h.64v.88c.25-.34.54-.59.84-.76.31-.17.64-.25,1.01-.25s.7.09.98.28c.29.19.5.44.64.76.14.32.2.81.2,1.48v2.54h-.63v-2.35c0-.57-.02-.95-.07-1.14-.08-.33-.22-.57-.43-.73-.21-.17-.48-.25-.82-.25-.38,0-.73.13-1.03.38-.3.25-.5.57-.6.94-.06.25-.09.69-.09,1.34v1.81h-.64v-4.94Zm5.14,0h.67l1.7,3.8,1.65-3.8h.68l-2.94,6.74h-.67l.95-2.18-2.03-4.56Zm6.14,3.71l.61.29-.92,1.71-.45-.19.76-1.81Zm4.89-3.36h-.64c.02-.66.24-1.2.66-1.62.42-.42.95-.64,1.57-.64s1.11.2,1.49.59c.38.4.57.86.57,1.4,0,.38-.09.73-.27,1.07-.18.33-.53.78-1.06,1.34l-1.66,1.79h3.08v.64h-4.53l2.55-2.75c.52-.55.85-.96,1.01-1.23.16-.27.24-.55.24-.85,0-.38-.14-.7-.42-.97-.28-.27-.62-.41-1.03-.41-.43,0-.78.14-1.07.43-.28.28-.44.68-.48,1.2Zm5.8-2.09h1.31v6.67h-.66v-6.02h-1.05l.4-.65Zm6.86,1.39c0,.44-.15.81-.46,1.11-.31.3-.68.45-1.11.45s-.8-.15-1.11-.45c-.3-.3-.45-.68-.45-1.12s.15-.79.46-1.09c.31-.3.68-.45,1.11-.45s.8.15,1.1.45c.31.3.46.67.46,1.11Zm-.54,0c0-.31-.1-.57-.29-.78-.2-.21-.44-.31-.72-.31s-.53.11-.73.32c-.2.21-.3.46-.3.76s.1.55.31.76c.21.21.45.32.73.32s.52-.1.72-.31c.2-.21.3-.46.3-.76Zm7.86-.16l-.53.4c-.29-.38-.64-.66-1.05-.86-.41-.2-.85-.29-1.34-.29-.53,0-1.03.13-1.48.39-.45.25-.81.6-1.06,1.03-.25.43-.37.91-.37,1.45,0,.81.28,1.49.83,2.04.56.54,1.26.82,2.11.82.93,0,1.72-.37,2.35-1.1l.53.4c-.33.42-.75.75-1.25.98-.5.23-1.05.34-1.67.34-1.17,0-2.09-.39-2.76-1.17-.57-.66-.85-1.45-.85-2.38,0-.98.34-1.8,1.03-2.46.69-.67,1.55-1,2.58-1,.62,0,1.19.12,1.69.37.5.24.91.59,1.23,1.03Z"/>
                <g class="cls-1">
                  <path class="cls-5" d="m214.81,85.33c-.28,0-.47.19-.47.47v.47c0,.28.19.47.47.47s.47-.19.47-.47v-.47c0-.28-.19-.47-.47-.47Zm-3.68,1.51c-.12,0-.24.05-.33.14-.19.19-.19.47,0,.66l.33.33c.19.19.47.19.66,0,.19-.19.19-.47,0-.66l-.33-.33c-.09-.09-.21-.14-.33-.14Zm7.37,0c-.12,0-.24.05-.33.14l-.33.33c-.19.19-.19.47,0,.66.19.19.47.19.66,0l.33-.33c.19-.19.19-.47,0-.66-.09-.09-.21-.14-.33-.14Zm-3.68.85c-.88,0-1.72.35-2.34.97-.62.62-.97,1.46-.97,2.34s.35,1.72.97,2.34c.62.62,1.46.97,2.34.97s1.72-.35,2.34-.97c.62-.62.97-1.46.97-2.34s-.35-1.72-.97-2.34c-.62-.62-1.46-.97-2.34-.97Zm-5.2,2.83c-.28,0-.47.19-.47.47s.19.47.47.47h.47c.28,0,.47-.19.47-.47s-.19-.47-.47-.47h-.47Zm9.92,0c-.28,0-.47.19-.47.47s.19.47.47.47h.47c.28,0,.47-.19.47-.47s-.19-.47-.47-.47h-.47Zm-8.08,3.35c-.12,0-.24.05-.33.14l-.33.33c-.19.19-.19.47,0,.66.19.19.47.19.66,0l.33-.33c.19-.19.19-.47,0-.66-.09-.09-.21-.14-.33-.14Zm6.71,0c-.12,0-.24.05-.33.14-.19.19-.19.47,0,.66l.33.33c.19.19.47.19.66,0,.19-.19.19-.47,0-.66l-.33-.33c-.09-.09-.21-.14-.33-.14Zm-3.35,1.37c-.28,0-.47.19-.47.47v.47c0,.28.19.47.47.47s.47-.19.47-.47v-.47c0-.28-.19-.47-.47-.47Z"/>
                </g>
                <g>
                  <path class="cls-5" d="m220.88,321.74h0c7.09,0,12.83,5.75,12.83,12.83h0c0,7.09-5.75,12.83-12.83,12.83h0c-7.09,0-12.83-5.75-12.83-12.83h0c0-7.09,5.75-12.83,12.83-12.83Z"/>
                  <path class="cls-9" d="m218.09,334.52c0-1.5,1.26-2.73,2.8-2.73s2.8,1.22,2.8,2.73-1.26,2.73-2.8,2.73-2.8-1.22-2.8-2.73Z"/>
                  <path class="cls-17" d="m215.69,334.47c0-.52-1.45-.97-1.33-1.46.32-1.29,1.03-2.44,2-3.3.36-.32,1.5.66,1.92.42.44-.25.15-1.7.64-1.85.62-.18,1.28-.28,1.96-.28.63,0,1.24.08,1.82.24.52.14.21,1.66.68,1.91.41.22,1.6-.82,1.95-.52,1,.86,1.74,2.01,2.07,3.31.13.51-1.31.98-1.31,1.53s1.44,1.11,1.32,1.61c-.31,1.21-.96,2.29-1.85,3.13-.42.39-1.92-.57-2.43-.3-.44.24.11,1.74-.39,1.88-.59.16-1.2.25-1.84.25-.75,0-1.47-.12-2.14-.34-.47-.16.04-1.67-.38-1.92-.38-.23-1.71.82-2.04.52-1.01-.91-1.74-2.12-2.02-3.49-.09-.42,1.38-.91,1.38-1.35Z"/>
                  <path class="cls-5" d="m252.57,321.74h0c7.09,0,12.83,5.75,12.83,12.83h0c0,7.09-5.75,12.83-12.83,12.83h0c-7.09,0-12.83-5.75-12.83-12.83h0c0-7.09,5.75-12.83,12.83-12.83Z"/>
                  <path class="cls-15" d="m252.94,328.64v8.63"/>
                  <path class="cls-15" d="m258.23,331.24s-1.11.56-2.65-.06c-1.97-.61-2.56-2.54-2.56-2.54"/>
                  <path class="cls-17" d="m247.07,337.53c0-1.62,1.32-2.94,2.94-2.94s2.94,1.32,2.94,2.94-1.32,2.94-2.94,2.94-2.94-1.32-2.94-2.94Z"/>
                  <path class="cls-5" d="m284.25,321.74h0c7.09,0,12.83,5.75,12.83,12.83h0c0,7.09-5.75,12.83-12.83,12.83h0c-7.09,0-12.83-5.75-12.83-12.83h0c0-7.09,5.75-12.83,12.83-12.83Z"/>
                  <path class="cls-16" d="m277.35,342.59l7.22-7.86"/>
                  <path class="cls-18" d="m284.54,334.72l-1.28-5.6"/>
                  <path class="cls-15" d="m294.36,333.76l-9.8,1.02"/>
                  <path class="cls-5" d="m315.93,321.74h0c7.09,0,12.83,5.75,12.83,12.83h0c0,7.09-5.75,12.83-12.83,12.83h0c-7.09,0-12.83-5.75-12.83-12.83h0c0-7.09,5.75-12.83,12.83-12.83Z"/>
                  <path class="cls-9" d="m311.22,340.89c-.86,0-1.6-.31-2.22-.92-.62-.62-.92-1.36-.92-2.22v-6.29c0-.86.31-1.6.92-2.22.62-.62,1.36-.92,2.22-.92h9.43c.86,0,1.6.31,2.22.92.62.62.92,1.36.92,2.22v6.29c0,.86-.31,1.6-.92,2.22-.62.62-1.36.92-2.22.92h-9.43Zm0-9.24h9.43c.38,0,.74.06,1.07.18.33.12.63.29.89.51v-.88c0-.55-.19-1.02-.57-1.4-.38-.38-.85-.57-1.4-.57h-9.43c-.55,0-1.02.19-1.4.57-.38.38-.57.85-.57,1.4v.88c.26-.22.56-.39.89-.51.33-.12.69-.18,1.07-.18Zm-1.91,2.67l9.37,2.26c.09.03.19.03.28,0,.1-.02.18-.06.25-.13l3.14-2.63c-.17-.3-.41-.54-.71-.73-.3-.18-.64-.28-1-.28h-9.43c-.46,0-.86.14-1.22.42-.35.28-.58.64-.69,1.07Z"/>
                  <path class="cls-5" d="m347.62,321.74h0c7.09,0,12.83,5.75,12.83,12.83h0c0,7.09-5.75,12.83-12.83,12.83h0c-7.09,0-12.83-5.75-12.83-12.83h0c0-7.09,5.75-12.83,12.83-12.83Z"/>
                  <path class="cls-9" d="m347.67,338.13c.8,0,1.48-.27,2.02-.82.55-.55.82-1.22.82-2.02s-.27-1.49-.82-2.03c-.55-.54-1.22-.81-2.02-.81s-1.49.27-2.03.81-.81,1.22-.81,2.03.27,1.48.81,2.02c.54.55,1.22.82,2.03.82Zm0-1c-.53,0-.97-.18-1.32-.53-.35-.35-.52-.79-.52-1.31s.17-.98.52-1.32.79-.52,1.32-.52.96.17,1.31.52c.35.34.53.79.53,1.32s-.18.96-.53,1.31c-.35.35-.79.53-1.31.53Zm-5.68,3.46c-.27,0-.5-.1-.7-.3s-.3-.43-.3-.7v-8.57c0-.26.1-.49.3-.69.2-.21.43-.31.7-.31h2.46l1.22-1.45h4.01l1.22,1.45h2.46c.26,0,.49.1.69.31.21.21.31.44.31.69v8.57c0,.27-.1.5-.31.7s-.44.3-.69.3h-11.36Z"/>
                </g>
                <g>
                  <g>
                    <path class="cls-5" d="m227.84,44.22h1.05v5.34h-.53v-4.82h-.84l.32-.52Zm2.98,2.67c0-.7.08-1.25.23-1.63.15-.38.37-.68.64-.87.28-.2.58-.3.93-.3s.66.1.94.3c.28.2.5.5.66.9.16.4.25.94.25,1.61s-.08,1.2-.24,1.6c-.16.4-.38.7-.66.9-.28.2-.6.3-.94.3s-.65-.1-.92-.29c-.27-.2-.49-.49-.64-.87-.15-.39-.23-.93-.23-1.63Zm.5.01c0,.6.05,1.06.16,1.37.11.31.27.54.48.7.21.16.43.24.67.24s.46-.08.66-.23c.21-.16.36-.39.47-.7.13-.38.2-.84.2-1.37s-.06-.98-.18-1.32c-.12-.34-.28-.59-.49-.75-.21-.16-.43-.24-.66-.24s-.46.08-.67.24c-.21.16-.37.39-.48.7-.11.31-.16.76-.16,1.37Zm4.51-1.39c.12,0,.23.04.32.13.09.09.13.19.13.32s-.04.23-.13.32c-.09.09-.19.13-.32.13s-.23-.04-.32-.13c-.09-.09-.13-.19-.13-.32s.04-.23.13-.32c.09-.09.19-.13.32-.13Zm0,3.25c.12,0,.23.04.32.13s.13.19.13.32-.04.23-.13.32c-.09.09-.19.13-.32.13s-.23-.04-.32-.13c-.09-.09-.13-.2-.13-.32s.04-.23.13-.32c.09-.09.19-.13.32-.13Zm4.1-4.67h.11v3.72h.65v.51h-.65v1.24h-.53v-1.24h-2.55l2.98-4.23Zm-.42,3.72v-2.22l-1.57,2.22h1.57Zm1.92-3.59h3.39l-2.86,5.47-.44-.23,2.47-4.74h-2.56v-.5Z"/>
                    <g class="cls-22">
                      <path class="cls-5" d="m227.84,44.22v-.19h-.1l-.05.09.16.1Zm1.05,0h.19v-.19h-.19v.19Zm0,5.34v.19h.19v-.19h-.19Zm-.53,0h-.19v.19h.19v-.19Zm0-4.82h.19v-.19h-.19v.19Zm-.84,0l-.16-.1-.17.28h.33v-.19Zm.32-.34h1.05v-.37h-1.05v.37Zm.86-.19v5.34h.37v-5.34h-.37Zm.19,5.15h-.53v.37h.53v-.37Zm-.34.19v-4.82h-.37v4.82h.37Zm-.19-5h-.84v.37h.84v-.37Zm-.68.28l.32-.52-.32-.19-.32.52.32.19Zm3.37.42l-.17-.07h0s.17.07.17.07Zm2.51-.87l-.11.15h0s.11-.15.11-.15Zm.66.9l-.17.07h0s.17-.07.17-.07Zm0,3.21l-.17-.07h0s.17.07.17.07Zm-.66.9l.11.15h0s-.11-.15-.11-.15Zm-2.51-.87l-.17.07h0s.17-.07.17-.07Zm.44-.25l-.18.06h0s.18-.06.18-.06Zm1.81.71l.11.15h0s-.11-.15-.11-.15Zm.47-.7l-.18-.06h0s.18.06.18.06Zm.02-2.69l-.18.06h0s.18-.06.18-.06Zm-.49-.75l-.11.15h0s.11-.15.11-.15Zm-1.33,0l.11.15h0s-.11-.15-.11-.15Zm-.48.7l.18.06h0s-.18-.06-.18-.06Zm-.48,1.36c0-.69.07-1.21.21-1.57l-.35-.14c-.16.42-.24.99-.24,1.7h.37Zm.21-1.56c.14-.36.34-.62.58-.79l-.22-.3c-.31.22-.54.55-.71.96l.35.14Zm.58-.79c.24-.18.51-.26.82-.26v-.37c-.38,0-.73.11-1.03.33l.22.3Zm.82-.26c.31,0,.58.09.83.27l.22-.3c-.31-.22-.66-.34-1.05-.34v.37Zm.83.27c.25.17.45.44.6.81l.34-.14c-.17-.42-.41-.75-.73-.98l-.21.3Zm.6.82c.15.37.23.88.23,1.54h.37c0-.68-.08-1.25-.26-1.68l-.34.14Zm.23,1.54c0,.66-.08,1.16-.23,1.53l.34.14c.17-.43.26-.99.26-1.67h-.37Zm-.23,1.53c-.15.37-.35.64-.6.82l.22.3c.32-.23.56-.56.73-.98l-.34-.14Zm-.6.82c-.25.18-.53.27-.84.27v.37c.38,0,.74-.11,1.05-.34l-.22-.3Zm-.84.27c-.3,0-.57-.09-.81-.26l-.22.3c.31.22.65.33,1.03.33v-.37Zm-.81-.26c-.24-.17-.43-.43-.58-.79l-.35.14c.16.41.4.74.71.96l.22-.3Zm-.58-.79c-.14-.36-.22-.88-.22-1.57h-.37c0,.71.08,1.28.24,1.7l.35-.14Zm-.08-1.55c0,.61.05,1.09.17,1.43l.35-.12c-.1-.28-.15-.71-.15-1.31h-.37Zm.17,1.43c.12.33.3.6.54.79l.22-.3c-.18-.13-.32-.33-.42-.61l-.35.12Zm.54.79c.24.18.5.28.78.28v-.37c-.19,0-.37-.06-.56-.2l-.22.3Zm.78.28c.28,0,.54-.09.78-.27l-.22-.3c-.18.13-.36.19-.55.19v.37Zm.78-.27c.24-.19.42-.45.53-.79l-.35-.12c-.1.29-.24.49-.41.62l.23.3Zm.53-.79c.14-.4.21-.88.21-1.43h-.37c0,.52-.06.96-.19,1.31l.35.12Zm.21-1.43c0-.55-.06-1.01-.19-1.38l-.35.12c.11.31.17.73.17,1.26h.37Zm-.19-1.38c-.13-.37-.31-.65-.56-.84l-.22.3c.17.13.32.34.43.66l.35-.12Zm-.56-.84c-.24-.18-.5-.28-.77-.28v.37c.19,0,.37.06.55.2l.23-.29Zm-.77-.28c-.28,0-.54.1-.78.28l.23.29c.18-.14.36-.2.55-.2v-.37Zm-.78.28c-.24.18-.42.45-.54.79l.35.12c.1-.28.24-.48.41-.61l-.22-.3Zm-.54.79c-.12.34-.17.82-.17,1.43h.37c0-.6.05-1.03.15-1.31l-.35-.12Zm4.2.17l.13.13h0s-.13-.13-.13-.13Zm.63,3.89l.13.13h0s-.13-.13-.13-.13Zm-.63,0l-.13.13h0s.13-.13.13-.13Zm.32-3.84c.07,0,.13.02.18.08l.26-.26c-.12-.12-.27-.19-.45-.19v.37Zm.18.08c.05.05.08.11.08.19h.37c0-.17-.06-.33-.19-.45l-.26.26Zm.08.19c0,.08-.02.14-.08.19l.26.26c.12-.12.19-.28.19-.45h-.37Zm-.08.19c-.05.05-.11.08-.18.08v.37c.17,0,.33-.06.45-.19l-.26-.26Zm-.18.08c-.07,0-.13-.02-.18-.08l-.26.26c.12.12.27.19.45.19v-.37Zm-.18-.08c-.05-.05-.08-.11-.08-.19h-.37c0,.17.06.33.19.45l.26-.26Zm-.08-.19c0-.07.02-.13.08-.18l-.26-.26c-.12.12-.19.27-.19.45h.37Zm.08-.19c.05-.05.11-.08.18-.08v-.37c-.17,0-.33.07-.45.19l.27.26Zm.18,3.17c.07,0,.13.02.18.08l.26-.26c-.12-.12-.27-.19-.45-.19v.37Zm.18.08c.05.05.08.11.08.19h.37c0-.17-.06-.33-.19-.45l-.26.26Zm.08.19c0,.07-.02.13-.08.19l.27.26c.12-.12.18-.28.18-.45h-.37Zm-.08.19c-.05.05-.11.08-.18.08v.37c.17,0,.33-.06.45-.19l-.26-.26Zm-.18.08c-.07,0-.13-.02-.18-.08l-.26.26c.12.12.27.19.45.19v-.37Zm-.18-.07c-.05-.06-.08-.12-.08-.19h-.37c0,.17.06.33.18.45l.27-.26Zm-.08-.19c0-.08.02-.14.08-.19l-.26-.26c-.12.12-.19.28-.19.45h.37Zm.08-.19c.05-.05.11-.08.18-.08v-.37c-.17,0-.33.06-.45.19l.26.26Zm4.29-4.94v-.19h-.1l-.06.08.15.11Zm.11,0h.19v-.19h-.19v.19Zm0,3.72h-.19v.19h.19v-.19Zm.65,0h.19v-.19h-.19v.19Zm0,.51v.19h.19v-.19h-.19Zm-.65,0v-.19h-.19v.19h.19Zm0,1.24v.19h.19v-.19h-.19Zm-.53,0h-.19v.19h.19v-.19Zm0-1.24h.19v-.19h-.19v.19Zm-2.55,0l-.15-.11-.21.29h.36v-.19Zm2.55-.51v.19h.19v-.19h-.19Zm0-2.22h.19v-.59l-.34.48.15.11Zm-1.57,2.22l-.15-.11-.21.29h.36v-.19Zm2-3.53h.11v-.37h-.11v.37Zm-.08-.19v3.72h.37v-3.72h-.37Zm.19,3.91h.65v-.37h-.65v.37Zm.46-.19v.51h.37v-.51h-.37Zm.19.33h-.65v.37h.65v-.37Zm-.83.19v1.24h.37v-1.24h-.37Zm.19,1.06h-.53v.37h.53v-.37Zm-.35.19v-1.24h-.37v1.24h.37Zm-.19-1.43h-2.55v.37h2.55v-.37Zm-2.4.29l2.98-4.23-.3-.21-2.98,4.23.3.21Zm2.59-.62v-2.22h-.37v2.22h.37Zm-.34-2.33l-1.57,2.22.3.21,1.57-2.22-.3-.21Zm-1.42,2.52h1.57v-.37h-1.57v.37Zm3.49-3.77v-.19h-.19v.19h.19Zm3.39,0l.16.09.14-.27h-.31v.19Zm-2.86,5.47l-.08.17.16.08.09-.16-.16-.09Zm-.44-.23l-.16-.09-.09.17.17.09.08-.17Zm2.47-4.74l.16.09.14-.27h-.31v.19Zm-2.56,0h-.19v.19h.19v-.19Zm0-.32h3.39v-.37h-3.39v.37Zm3.22-.27l-2.86,5.47.33.17,2.86-5.47-.33-.17Zm-2.61,5.39l-.44-.23-.17.33.44.23.17-.33Zm-.36.03l2.47-4.74-.33-.17-2.47,4.74.33.17Zm2.3-5.02h-2.56v.37h2.56v-.37Zm-2.37.19v-.5h-.37v.5h.37Z"/>
                    </g>
                  </g>
                  <g>
                    <path class="cls-5" d="m332.51,50.75v-2.92l-1.8,1.8-.39-.39,2.08-2.08-2.08-2.08.39-.39,1.8,1.8v-2.92h.28l1.99,1.99-1.6,1.6,1.6,1.6-1.99,1.99h-.28Zm.56-4.26l.93-.93-.93-.91v1.84Zm0,3.18l.93-.91-.93-.93v1.84Z"/>
                    <path class="cls-5" d="m343.79,50.45l-4.18-4.46c.56-.58,1.2-1.03,1.92-1.36.71-.33,1.47-.5,2.26-.5s1.55.17,2.26.5c.71.33,1.35.79,1.92,1.36l-4.18,4.46Zm-2.47-3.4c.36-.3.74-.54,1.15-.71.41-.17.84-.25,1.32-.25s.91.08,1.32.25c.41.17.79.4,1.15.71l.94-1c-.51-.42-1.04-.75-1.61-.99-.57-.24-1.17-.36-1.81-.36s-1.24.12-1.81.36c-.57.24-1.1.57-1.61.99l.95,1Z"/>
                    <g class="cls-21">
                      <path class="cls-5" d="m353.27,51.01c-.08,0-.14-.03-.2-.08-.05-.05-.08-.12-.08-.2v-6.28c0-.08.03-.15.08-.2.05-.05.12-.08.2-.08h.84v-.59h1.49v.59h.84c.08,0,.14.03.2.08.05.05.08.12.08.2v6.28c0,.08-.03.15-.08.2-.05.05-.12.08-.2.08h-3.16Zm.28-4.65h2.6v-1.64h-2.6v1.64Z"/>
                    </g>
                  </g>
                </g>
              </g>
            </g>
            <path class="cls-6" d="m201.81,48.22c0-7.83,6.35-14.18,14.18-14.18h136.52c7.83,0,14.18,6.35,14.18,14.18v328.44c0,7.83-6.35,14.18-14.18,14.18h-136.52c-7.83,0-14.18-6.35-14.18-14.18V48.22Z"/>
          </g>
        </g>
        <circle class="cls-7" cx="214.89" cy="47.12" r="6.43"/>
        <path class="cls-3" d="m214.89,51.33c2.33,0,4.21-1.89,4.21-4.21s-1.89-4.21-4.21-4.21-4.21,1.89-4.21,4.21,1.89,4.21,4.21,4.21Z"/>
        <path class="cls-10" d="m214.89,49.75c1.45,0,2.63-1.18,2.63-2.63s-1.18-2.63-2.63-2.63-2.63,1.18-2.63,2.63,1.18,2.63,2.63,2.63Z"/>
        <path class="cls-13" d="m214.89,46.59c.29,0,.53-.24.53-.53s-.24-.53-.53-.53-.53.24-.53.53.24.53.53.53Z"/>
      </g>
    </g>
  </g>
</svg>