<?xml version="1.0" encoding="UTF-8"?>
<svg xmlns="http://www.w3.org/2000/svg" xmlns:xlink="http://www.w3.org/1999/xlink" viewBox="0 0 428.62 410.29">
  <defs>
    <style>
      .cls-1, .cls-2, .cls-3, .cls-4, .cls-5, .cls-6, .cls-7, .cls-8, .cls-9, .cls-10, .cls-11, .cls-12, .cls-13, .cls-14 {
        stroke-width: 0px;
      }

      .cls-1, .cls-8, .cls-13 {
        fill-rule: evenodd;
      }

      .cls-1, .cls-10 {
        fill: #272c2d;
      }

      .cls-2 {
        fill: #3b4245;
      }

      .cls-3 {
        fill: none;
      }

      .cls-4 {
        fill: #6dab64;
      }

      .cls-5, .cls-8 {
        fill: #121515;
      }

      .cls-6 {
        fill: #fff;
      }

      .cls-7 {
        fill: #79bd6e;
      }

      .cls-15 {
        clip-path: url(#clippath);
      }

      .cls-9 {
        fill: #afc5b7;
      }

      .cls-16 {
        mask: url(#mask);
      }

      .cls-11 {
        fill: #5c8f54;
      }

      .cls-12 {
        fill: #1d1d1b;
      }

      .cls-13 {
        fill: #647074;
        isolation: isolate;
        opacity: .4;
      }

      .cls-14 {
        fill: #aed185;
      }
    </style>
    <clipPath id="clippath">
      <rect class="cls-3" x="116.19" y="26.75" width="183.94" height="380.3"/>
    </clipPath>
    <mask id="mask" x="116.19" y="26.75" width="183.94" height="380.3" maskUnits="userSpaceOnUse">
      <g id="mask0_52_359" data-name="mask0 52 359">
        <path class="cls-6" d="m125.05,52.45c0-7.83,6.35-14.18,14.18-14.18h136.52c7.83,0,14.18,6.35,14.18,14.18v328.44c0,7.83-6.35,14.18-14.18,14.18h-136.52c-7.83,0-14.18-6.35-14.18-14.18V52.45Z"/>
      </g>
    </mask>
  </defs>
  <g id="Calque_2" data-name="Calque 2">
    <path class="cls-14" d="m42.69,85.82c-11,16.39-19.06,34.82-25.47,53.43-6.14,17.84-10.46,36.31-13.19,54.97S-.6,233.01.18,252.57c.82,20.62,5.22,41.68,12.96,60.84,1.92,4.76,3.86,9.58,6.31,14.12,2.84,5.27,6.43,10.08,10.27,14.66,7.78,9.26,18.27,15.16,29.36,19.5,5.95,2.32,12.73,3.06,19.02,3.45,6.31.39,12.73-.46,18.88-1.87s12.39-4,18-7.08c4.43-2.43,8.37-5.56,12.36-8.64,35.49-27.28,71.15-54.63,103.2-85.98,16.56-16.2,31.65-33.54,45.77-51.89s26.33-36.53,39.63-54.69c3.09-4.22,6.22-8.42,9.42-12.56l-3.52,4.55c8.4-10.83,17.45-21.24,28.32-29.67l-4.55,3.52c5.76-4.41,11.96-8.26,18.64-11.11l-5.37,2.27c4.12-1.71,8.37-2.99,12.79-3.6l-5.98.8c3.07-.37,6.12-.4,9.18,0l-5.98-.8c2.53.39,4.95,1.07,7.32,2.06l-5.37-2.27c2.58,1.13,4.96,2.56,7.2,4.27l-4.55-3.52c2.63,2.08,4.95,4.46,7.01,7.09l-3.52-4.55c2.48,3.26,4.51,6.79,6.11,10.56l-2.27-5.37c1.57,3.81,2.62,7.76,3.18,11.84l-.8-5.98c.76,6.08.4,12.18-.38,18.23l.8-5.98c-1.02,7.62-2.62,15.15-4,22.71s-2.94,15.76-5.03,23.53c-4.41,16.38-10.19,32.41-15.65,48.45-3.06,8.99-6.54,17.83-10.22,26.58l2.27-5.37c-4.94,11.67-10.25,23.19-15.56,34.7-1.64,2.58-2.53,5.37-2.67,8.37-.67,2.99-.54,5.98.4,8.97,1.44,5.22,5.47,10.88,10.34,13.45,5.22,2.76,11.55,4.14,17.34,2.27,5.27-1.7,11.03-5.11,13.45-10.34,6.89-14.94,13.69-29.91,19.93-45.13,5.42-13.23,9.89-26.78,14.47-40.32,4.38-12.94,8.7-25.94,11.68-39.28,1.46-6.56,2.51-13.21,3.76-19.82,1.5-7.94,2.86-15.87,3.84-23.9.68-5.51.94-11.07.31-16.59-.51-4.49-1.05-9.09-2.32-13.45s-3.15-8.72-5.17-12.85c-1.26-2.57-2.73-5.02-4.44-7.31-2.73-3.67-5.49-7.43-8.89-10.52s-6.95-5.9-10.86-8.09c-2.75-1.55-5.74-2.69-8.66-3.87-1.41-.57-2.85-1.06-4.34-1.42-18.67-4.54-37.92,1.47-53.72,11.55-12.28,7.83-23.05,17.81-32.43,28.9-19.47,23.02-35.76,48.58-53.74,72.75-2.2,2.95-4.42,5.89-6.66,8.8l3.52-4.55c-14.07,18.18-29.59,35.12-46.19,51.01s-34.13,30.78-52.02,45.2c-10.17,8.19-20.47,16.23-30.8,24.22l4.55-3.52c-4.9,3.78-9.8,7.55-14.71,11.32-4.31,3.31-8.79,6.26-13.81,8.4l5.37-2.27c-4.09,1.68-8.36,2.81-12.75,3.41l5.98-.8c-3.9.46-7.83.32-11.71-.16l5.98.8c-3.83-.52-7.46-1.46-11.02-2.96l5.37,2.27c-3.85-1.67-7.47-3.73-10.8-6.29l4.55,3.52c-3.11-2.44-5.87-5.25-8.3-8.37l3.52,4.55c-3.63-4.75-6.45-10-8.78-15.49l2.27,5.37c-5.87-13.98-9.81-28.98-11.83-43.99l.8,5.98c-2.62-20.17-1.22-41.09,1.46-61.19l-.8,5.98c2.7-19.96,7.17-39.72,13.72-58.77,1.85-5.38,3.88-10.69,6.08-15.93l-2.27,5.37c4.74-11.19,10.33-22.03,17.11-32.12,3.13-4.67,3.72-12.05,2.27-17.34s-5.47-10.88-10.34-13.45c-5.22-2.76-11.55-4.14-17.34-2.27s-10.05,5.28-13.45,10.34h0Z"/>
  </g>
  <g id="Calque_1" data-name="Calque 1">
    <g class="cls-15">
      <g>
        <path class="cls-2" d="m116.19,50.24c0-12.97,10.52-23.49,23.49-23.49h135.63c12.97,0,23.49,10.52,23.49,23.49v333.31c0,12.97-10.52,23.49-23.49,23.49h-135.63c-12.97,0-23.49-10.52-23.49-23.49V50.24Z"/>
        <path class="cls-5" d="m118.85,50.24c0-11.51,9.33-20.83,20.83-20.83h135.63c11.51,0,20.83,9.33,20.83,20.83v333.31c0,11.51-9.33,20.83-20.83,20.83h-135.63c-11.51,0-20.83-9.33-20.83-20.83V50.24Z"/>
        <path class="cls-10" d="m188.3,31.62c-.81,0-.88-1.11-1.55-1.3-.08-.02-.11-.12-.05-.17.17-.13.44-.3.72-.3h40.16c.28,0,.55.17.72.3.06.05.03.15-.05.17-.68.19-.75,1.3-1.55,1.3h-38.39Z"/>
        <path class="cls-5" d="m298.8,174.34h.44c.49,0,.89.66.89,1.47v49.37c0,.81-.4,1.47-.89,1.47h-.44v-52.3Z"/>
        <path class="cls-9" d="m298.8,121.6h.44c.49,0,.89.66.89,1.47v23.22c0,.81-.4,1.47-.89,1.47h-.44v-26.15Z"/>
        <g class="cls-16">
          <g>
            <rect class="cls-7" x="116.19" y="26.75" width="183.94" height="380.3"/>
            <g>
              <path class="cls-12" d="m273.91,219.92c-1.09.39-1.53.91-1.83,2.26-.07.3-.49.3-.56,0-.3-1.35-.74-1.87-1.83-2.26-.25-.09-.25-.45,0-.54,1.09-.39,1.53-.91,1.83-2.26.07-.3.49-.3.56,0,.3,1.35.74,1.87,1.83,2.26.25.09.25.45,0,.54Z"/>
              <path class="cls-12" d="m264.22,223.88c-1.08.59-1.46,1.2-1.55,2.67-.02.32-.47.39-.59.09-.53-1.37-1.08-1.84-2.29-2.08-.28-.05-.34-.43-.09-.57,1.08-.59,1.46-1.2,1.55-2.67.02-.32.47-.39.59-.09.53,1.37,1.08,1.84,2.29,2.08.28.05.34.43.09.57Z"/>
              <path class="cls-12" d="m271.51,211.57c-2.4.24-3.55,1.06-4.85,3.65-.28.57-1.15.35-1.13-.28.08-2.89-.56-4.16-2.56-5.5-.46-.31-.28-1.04.27-1.09,2.4-.24,3.55-1.06,4.85-3.65.28-.57,1.15-.35,1.13.28-.08,2.89.56,4.16,2.56,5.5.46.31.28,1.04-.27,1.09Z"/>
              <path class="cls-12" d="m208.62,217.68c3.48-2.5,7.15-4.71,11.09-6.41l-1.79.76c3.13-1.32,6.37-2.28,9.74-2.74l-1.99.27c2.33-.28,4.65-.33,6.98-.04l-1.99-.27c2.25.31,4.42.9,6.52,1.76l-1.79-.76c1.19.51,2.35,1.1,3.45,1.79.5.31.95.68,1.45.99-2.11-1.32-.34-.24.22.27.42.39.83.8,1.22,1.23.19.21.37.44.57.65.89,1.01-1.06-1.55-.33-.42s1.33,2.14,1.84,3.33l-.76-1.79c.13.33.26.65.37.98.66,1.86,1.7,3.46,3.45,4.48,1.61.94,3.98,1.34,5.78.76,3.64-1.18,6.64-5.27,5.24-9.23-3.04-8.56-9.87-14.51-18.38-17.39-8.05-2.73-17.19-1.78-24.97,1.4-4.8,1.97-9.25,4.39-13.47,7.41-1.63,1.17-2.9,2.49-3.45,4.48-.49,1.8-.27,4.19.76,5.78,2.03,3.15,6.85,5.14,10.26,2.69h0Z"/>
              <path class="cls-12" d="m164.42,168.81c-.7,20.58-1.4,41.15-2.1,61.73-.13,3.93,3.54,7.68,7.5,7.5,4.18-.19,7.36-3.29,7.5-7.5.7-20.58,1.4-41.15,2.1-61.73.13-3.93-3.54-7.68-7.5-7.5-4.18.19-7.36,3.29-7.5,7.5h0Z"/>
            </g>
            <path class="cls-3" d="m125.05,52.45c0-7.83,6.35-14.18,14.18-14.18h136.52c7.83,0,14.18,6.35,14.18,14.18v328.44c0,7.83-6.35,14.18-14.18,14.18h-136.52c-7.83,0-14.18-6.35-14.18-14.18V52.45Z"/>
          </g>
        </g>
        <circle class="cls-5" cx="138.13" cy="51.34" r="6.43"/>
        <path class="cls-1" d="m138.13,55.56c2.33,0,4.21-1.89,4.21-4.21s-1.89-4.21-4.21-4.21-4.21,1.89-4.21,4.21,1.89,4.21,4.21,4.21Z"/>
        <path class="cls-8" d="m138.13,53.98c1.45,0,2.63-1.18,2.63-2.63s-1.18-2.63-2.63-2.63-2.63,1.18-2.63,2.63,1.18,2.63,2.63,2.63Z"/>
        <path class="cls-13" d="m138.13,50.82c.29,0,.53-.24.53-.53s-.24-.53-.53-.53-.53.24-.53.53.24.53.53.53Z"/>
      </g>
    </g>
  </g>
  <g id="Calque_3" data-name="Calque 3">
    <path class="cls-4" d="m369.6,349.89c-17.17,14.65-21.67,27.16-17.8,53.99.85,5.91-6.96,8.87-10.23,3.87-14.86-22.67-26.51-29.06-49.08-28.68-5.24.09-7.72-6.46-3.73-9.86,17.17-14.65,21.67-27.16,17.8-53.99-.85-5.91,6.96-8.87,10.23-3.87,14.86,22.67,26.51,29.06,49.08,28.68,5.24-.09,7.72,6.46,3.73,9.86Z"/>
    <path class="cls-11" d="m156.35,64.11c-22.07,4.74-31.97,13.61-41.31,39.05-2.06,5.61-10.34,4.5-10.85-1.45-2.31-27.01-9.53-38.17-29.57-48.55-4.65-2.41-3.72-9.35,1.4-10.45,22.07-4.74,31.97-13.61,41.31-39.05,2.06-5.61,10.34-4.5,10.85,1.45,2.31,27.01,9.53,38.17,29.57,48.55,4.65,2.41,3.72,9.35-1.4,10.45Z"/>
  </g>
</svg>